<svg width="21" height="21" viewBox="0 0 21 21" fill="none" xmlns="http://www.w3.org/2000/svg">
<rect width="21" height="21" rx="6" fill="white"/>
<path d="M7.48387 11.8107L9.1871 13.5134M7.48387 11.8107C7.48387 11.8107 8.48948 9.29784 9.9209 7.55402M7.48387 11.8107C3.78006 10.8849 7.10774 7.55402 9.9209 7.55402M9.1871 13.5134C9.1871 13.5134 11.7008 12.5081 13.4452 11.0771M9.1871 13.5134C10.1132 17.2153 13.4452 13.8894 13.4452 11.0771M9.9209 7.55402C11.3686 5.79033 13.7553 5 16 5C16 7.24399 15.2094 9.62915 13.4452 11.0771M12.2387 8.6941L12.7405 8.19252M5.90058 13.7447C5.22497 14.3129 5 16 5 16C5 16 6.68335 15.7744 7.25039 15.0976C7.56974 14.7187 7.56548 14.137 7.20994 13.7851C7.03415 13.6199 6.80405 13.5246 6.56291 13.5172C6.32178 13.5098 6.08623 13.5906 5.90058 13.7447Z" stroke="#171717" stroke-width="0.8" stroke-linecap="round" stroke-linejoin="round"/>
</svg>
